/* XPM */
static char * knight2_xpm[] = {
"64 64 106 2",
"  	c None",
". 	c #000000",
"+ 	c #00FCFC",
"@ 	c #00E4E4",
"# 	c #00B4B4",
"$ 	c #00007C",
"% 	c #000088",
"& 	c #B8FCFC",
"* 	c #7CFCF8",
"= 	c #00004C",
"- 	c #000058",
"; 	c #C0C0C0",
"> 	c #0000B0",
", 	c #0000D4",
"' 	c #D8FCFC",
") 	c #9CFCFC",
"! 	c #00CCCC",
"~ 	c #000070",
"{ 	c #000098",
"] 	c #D0D0D0",
"^ 	c #009898",
"/ 	c #0000BC",
"( 	c #0000EC",
"_ 	c #0000FC",
": 	c #0000A4",
"< 	c #007878",
"[ 	c #A8A8A8",
"} 	c #008484",
"| 	c #0000E0",
"1 	c #0000A8",
"2 	c #007070",
"3 	c #DCDCDC",
"4 	c #20FCFC",
"5 	c #005858",
"6 	c #006464",
"7 	c #007C7C",
"8 	c #640000",
"9 	c #980000",
"0 	c #BC0000",
"a 	c #A80000",
"b 	c #B00000",
"c 	c #880000",
"d 	c #989898",
"e 	c #FCFCFC",
"f 	c #2C2C2C",
"g 	c #FC0000",
"h 	c #646464",
"i 	c #400000",
"j 	c #009C9C",
"k 	c #B4B4B4",
"l 	c #383838",
"m 	c #7C7C7C",
"n 	c #008C8C",
"o 	c #006060",
"p 	c #484848",
"q 	c #00A4A4",
"r 	c #007474",
"s 	c #707070",
"t 	c #8C8C8C",
"u 	c #006C6C",
"v 	c #1C1C1C",
"w 	c #004040",
"x 	c #00A8A8",
"y 	c #404040",
"z 	c #303030",
"A 	c #5C5C5C",
"B 	c #545454",
"C 	c #202020",
"D 	c #FC8820",
"E 	c #A85400",
"F 	c #483818",
"G 	c #FCA85C",
"H 	c #B45400",
"I 	c #B47044",
"J 	c #6C4824",
"K 	c #D08050",
"L 	c #80502C",
"M 	c #4C4C4C",
"N 	c #343434",
"O 	c #ECECEC",
"P 	c #5C4020",
"Q 	c #302410",
"R 	c #FC7C7C",
"S 	c #9C6038",
"T 	c #FC5C5C",
"U 	c #FC9C9C",
"V 	c #E4D800",
"W 	c #706C00",
"X 	c #FCFC9C",
"Y 	c #FCF400",
"Z 	c #BC7848",
"` 	c #9C4C00",
" .	c #FC2020",
"..	c #E00000",
"+.	c #B4AC00",
"@.	c #CCC400",
"#.	c #FCFCB8",
"$.	c #FCFC7C",
"%.	c #FCF85C",
"&.	c #9C9C00",
"*.	c #FCFC54",
"=.	c #585400",
"-.	c #848400",
";.	c #C87C4C",
">.	c #885830",
",.	c #C80000",
". . . . . . . . . . . . . . . . . . . . . . . . . . . . . . . . . . . . . . . . . . . . . . . . . . . . . . . . . . . . . . . . ",
". . . . . . . . . . . . . . . . . . . . . . . . . . . . . . . + @ # . . . . . . . . . . . . . . . . . . . . . . . . . . . . . . ",
". . . . . . . . . . . . . . . . . . . . . . . . . . . . . $ % & * # = - . . . . . . . . . . . ; . . . . . . . . . . . . . . . . ",
". . . . . . . . . . . . . . . . . . . . . . . . . . . . % > , ' ) ! ~ { ~ . . . . . . . . . . ] . . . . . . . . . . . . . . . . ",
". . . . . . . . . . . . . . . . . . . . . . . . . . . ^ / ( _ ' & ! { / : < . . . . . . . . [ ] . . . . . . . . . . . . . . . . ",
". . . . . . . . . . . . . . . . . . . . . . . . . . . } | _ _ ) * ! 1 | / 2 . . . . . . . . ; 3 ] . . . . . . . . . . . . . . . ",
". . . . . . . . . . . . . . . . . . . . . . . . . . . } # 4 & * + # } 5 5 6 . . . . . . . 3 3 ] 3 . . . . . . . . . . . . . . . ",
". . . . . . . . . . . . . . . . . . . . . . . . . . . 7 8 9 0 9 a 0 b c 8 6 . . . . . . . ] 3 d e 3 . . . . . . . . . . . . . . ",
". . . . . . . . . . . . . . . . . . . . . . . . . . . 2 f g g 0 9 9 g g 8 6 . . . . . . ] [ 3 h 3 e . . . . . . . . . . . . . . ",
". . . . . . . . . . . . . . . . . . . . . . . . . . . 6 ! 9 a 0 i 9 a c j 5 . . . . . . k d 3 l m e 3 . . . . . . . . . . . . . ",
". . . . . . . . . . . . . . . . . . . . . . . . . . . 5 n ! i o i p i q r 5 . . . . . ] [ m ] l s t 3 3 . . . . . . . . . . . . ",
". . . . . . . . . . . . . . . . . . . . . . . . . . . 5 u # o ^ < p 6 j o 5 . . . . . [ m m ; l s s t ] . . . . . . . . . . . . ",
". . . . . . . . . . . . . . . . . . . . . # ^ } } 5 7 5 o ^ v w w w w } o 5 w w w w ] d m m k l s s s d ] . . . . . . . . . . . ",
". . . . . . . . . . . . . . . . . . . x # ! ! # x w j 5 6 } w 6 5 l y 7 o 5 w w w w [ m h l [ z s s s t ] . . . . . . . . . . . ",
". . . . . . . . . . . . . . . . . . x ! @ @ @ ! # 2 # ! r } v w v w v 7 6 w w 5 5 5 d h w q k z y h s s d 3 . . . . . . . . . . ",
". . . . . . . . . . . . . . . . . n ! @ + @ @ ! r n ! @ n n w w w w w 7 w 5 5 2 2 6 s l ^ ! [ l A f B m d 3 . . . . . . . . . . ",
". . . . . . . . . . . . . . . . . # @ @ @ ! # ^ u ! @ @ @ j w w C w w 5 j j } n ^ < h j @ ! d y A . f h d ; . . . . . . . . . . ",
". . . . . . . . . . . . . . . . . ! @ @ @ # # < ^ @ @ @ @ ! ^ w C w 6 @ @ ! x x x 7 2 ! @ ! D E F . . p m k . . . . . . . . . . ",
". . . . . . . . . . . . . . . . . ! @ @ ! # x w # @ @ @ ! ! x } w 5 ^ @ @ @ ! ! # } w x ! ! G H F . . . h [ . . . . . . . . . . ",
". . . . . . . . . . . . . . . . . x @ @ ! # x w @ @ @ @ @ ! # n 5 o ^ @ @ @ @ @ ! q 5 x # # G I J h . . l d . . . . . . . . . . ",
". . . . . . . . . . . . . . . . . . . B p p B . ! @ @ ! ! ! # n 5 5 n ! ! ! ! ! ! # . p p t G K L M l . . m . . . . . . . . . . ",
". . . . . . . . . . . . . . . . . . . . B B B . x # # x x x j } w 5 n ^ j j j j ^ ^ . . B A [ [ m y l . . m . . . . . . . . . . ",
". . . . . . . . . . . . . . . . . . . . d s B . } } 7 7 7 7 7 6 w 5 r 7 7 7 7 7 7 7 . . t s p B B l l l . . . . . . . . . . . . ",
". . . . . . . . . . . . . . . . . . . . ; m . . . h p t k A 5 t t t 5 A d s B h B . . . s y t t h h l l . . . . . . . . . . . . ",
". . . . . . . . . . . . . . . . . . . . 3 d . . . d s ] A ] k [ ; ] k m A d s B A . . . B m N p p z l l . . . . . . . . . . . . ",
". . . . . . . . . . . . . . . . . . . . O d . . . . k m ] O t s k s B ; m M m M . . . . . B d d m s z l . . . . . . . . . . . . ",
". . . . . . . . . . . . . . . . . . . . O d . . . . t k O d O ] ] ; k d [ h B B . . . . . t l B B y l . . . . . . . . . . . . . ",
". . . . . . . . . . . . . . . . . . ] . ; m . . . . . 3 k O s p h p p d [ t B . . . . . . . t m A B . . . . . . . . . . . . . . ",
". . . . . . . . . . . . . . . . . . k ; ] [ . . . . . h k h M l h l M B p h l . . . . . . . P F Q . . . . . . . . . . . . . . . ",
". . . . . . . . . . . . . . . . . . g R ] [ t s . . . . . . . l h p . . . . . . . . . . . . S L F . . . . . . . . . . . . . . . ",
". . . . . . . . . . . . . . . . . . g T R U m B . V W V X W X V V V V W X V W Y . . . . . . Z ` F . . . . . . . . . . . . . . . ",
". . . . . . . . . . . . . . . . . . A  .R T ..b . +.+.@.Y +.Y #.$.%.&.+.*.@.&.+.. . . . . . K S J . . . . . . . . . . . . . . . ",
". . . . . . . . . . . . . . . . . . A [ 3 R ..b . &.=.-.&.=.@.&.&.&.+.=.&.&.=.-.. . . . . . ;.S J . . . . . . . . . . . . . . . ",
". . . . . . . . . . . . . . . . . . m d ; t s B . 6 r } ^ j j ^ n } r 6 w w 5 2 . . . . . . ;.S J . . . . . . . . . . . . . . . ",
". . . . . . . . . . . . . . . . . . . s k t s B . 7 n x ! ! @ @ ! x } u 5 w 5 u . . . . . . I >.J . . . . . . . . . . . . . . . ",
". . . . . . . . . . . . . . . . . . . h t t h B [ t r } q # ! ! # j 7 5 w 5 B l l . . . . . I >.J . . . . . . . . . . . . . . . ",
". . . . . . . . . . . . . . . . . . . A s m A B ] ] t 5 u ^ x x ^ 7 5 w 5 f l h B . . . . . I >.J . . . . . . . . . . . . . . . ",
". . . . . . . . . . . . . . . . . . . M d k s . [ ] t d 5 6 < 2 o 5 5 w f y A A l . . . . . I >.J . . . . . . . . . . . . . . . ",
". . . . . . . . . . . . . . . . . . . y m k s . s O [ s y . o o 5 5 5 . N p s A y . . . . . I >.J . . . . . . . . . . . . . . . ",
". . . . . . . . . . . . . . . . . . . . M d h . . O ] t h . . . . . . . M s k B . . . . . . I >.J . . . . . . . . . . . . . . . ",
". . . . . . . . . . . . . . . . . . . . l s s . . k 3 d m . . . . . . . p [ m B . . . . . . ;.>.J . . . . . . . . . . . . . . . ",
". . . . . . . . . . . . . . . . . . . . p f N B . . O [ t . . . . . . . m ; s . . . . . . . Z >.J . . . . . . . . . . . . . . . ",
". . . . . . . . . . . . . . . . . . . . . M h B . h O ] m B . . . . . s [ ] k h . . . . . . K S J . . . . . . . . . . . . . . . ",
". . . . . . . . . . . . . . . . . . . . . z y l t t O O d t . . . . . t ] 3 ] s h . . . . . g ,.9 . . . . . . . . . . . . . . . ",
". . . . . . . . . . . . . . . . . . . . . . . . m k O 3 ] t B . . . s k ] 3 O [ h . . . . . g ,.9 . . . . . . . . . . . . . . . ",
". . . . . . . . . . . . . . . . . . . . . . . . h 3 O ] e ; s . . . m ] e ] O [ t . . . . . g ,.9 . . . . . . . . . . . . . . . ",
". . . . . . . . . . . . . . . . . . . . . . . . . 3 3 k [ ] . . . . . ] [ k 3 t . . . . . . g ,.9 . . . . . . . . . . . . . . . ",
". . . . . . . . . . . . . . . . . . . . . . . . s h m A t m h . . . s m t A m h h . . . . . g ,.9 . . . . . . . . . . . . . . . ",
". . . . . . . . . . . . . . . . . . . . . . . . s ; 3 O 3 [ h . . . A [ 3 O 3 [ s . . . . . g ,.9 . . . . . . . . . . . . . . . ",
". . . . . . . . . . . . . . . . . . . . . . . . . t k ] [ t . . . . . k k ] [ m . . . . . . g ,.9 . . . . . . . . . . . . . . . ",
". . . . . . . . . . . . . . . . . . . . . . . . . A t ; d m . . . . . m d k t A . . . . . . g ,.9 . . . . . . . . . . . . . . . ",
". . . . . . . . . . . . . . . . . . . . . . . . . . s d t . . . . . . . m d h . . . . . . . g ,.9 . . . . . . . . . . . . . . . ",
". . . . . . . . . . . . . . . . . . . . . . . . . . m k d . . . . . . . t [ A . . . . . . . g ,.9 . . . . . . . . . . . . . . . ",
". . . . . . . . . . . . . . . . . . . . . . . . . . B [ d . . . . . . . d t A . . . . . . . g ,.9 . . . . . . . . . . . . . . . ",
". . . . . . . . . . . . . . . . . . . . . . . . . . h t d . . . . . . . ] t A . . . . . . . g ,.9 . . . . . . . . . . . . . . . ",
". . . . . . . . . . . . . . . . . . . . . . . . . . s [ t . . . . . . . [ [ A . . . . . . . g ,.9 . . . . . . . . . . . . . . . ",
". . . . . . . . . . . . . . . . . . . . . . . . . . A [ m . . . . . . . t k p . . . . . . . g ,.9 . . . . . . . . . . . . . . . ",
". . . . . . . . . . . . . . . . . . . . . . . . . . m d [ . . . . . . . k [ m . . . . . . . g ,.9 . . . . . . . . . . . . . . . ",
". . . . . . . . . . . . . . . . . . . . . . . . . . [ d h . . . . . . . d d [ . . . . . . . K >.J . . . . . . . . . . . . . . . ",
". . . . . . . . . . . . . . . . . . . . . . . . . . s p p . . . . . . . h [ B . . . . . . . K >.J . . . . . . . . . . . . . . . ",
". . . . . . . . . . . . . . . . . . . . . . . . . B d h h h h h h h h s m [ [ B h h h h h h K >.J h h h h . . . . . . . . . . . ",
". . . . . . . . . . . . . . . . . . . . . . . . m [ ] m B p p p p p p p t t ; [ m p p p p p K >.J v l p p B B B B h h h h . . . ",
". . . . . . . . . . . . . . . . . . . . . . d [ ; [ m A A v v v v v v v B A m k ; [ d p p p K >.L v v v l l l p p p p B B h h . ",
". . . . . . . . . . . . . . . . . . . . . m m m d m A z A v v v v v v v p C A m d m m m l h A A l l l l l p p p B B h h h h h . "};
