/* XPM */
static char * puit_xpm[] = {
"64 64 26 1",
" 	c None",
".	c #000000",
"+	c #A8A8A8",
"@	c #D0D0D0",
"#	c #DCDCDC",
"$	c #7C7C7C",
"%	c #ECECEC",
"&	c #B4B4B4",
"*	c #FCFCFC",
"=	c #545454",
"-	c #989898",
";	c #C0C0C0",
">	c #8C8C8C",
",	c #707070",
"'	c #383838",
")	c #484848",
"!	c #202020",
"~	c #646464",
"{	c #000098",
"]	c #0000FC",
"^	c #5C60FC",
"/	c #4040FC",
"(	c #0000EC",
"_	c #0000B0",
":	c #9C9CFC",
"<	c #2C2C2C",
"................................................................",
"................................................................",
"................................................................",
"................................................................",
"................................................................",
"................................................................",
"................................................................",
"................................................................",
"................................................................",
"................................................................",
"................................................................",
"................................................................",
"................................................................",
"................................................................",
"................................................................",
"................................................................",
"................................................................",
"................................................................",
"................................................................",
"................................................................",
"................................................................",
"................................................................",
"................................................................",
"................................................................",
"................................................................",
"................................................................",
"................................................................",
"................................................................",
"................................................................",
"................................................................",
"................................................................",
"................................................................",
"................................................................",
"................................................................",
"................................................................",
"................................................................",
"................................................................",
"................................................................",
"................................................................",
"...................+@@@@@.+@@..@@@@@@@++........................",
"............#####$@%%%@@@$%@@$@%%%%%@@@@$@@@@...................",
"..........&##*@@+=-----$$=$$$=$$$----+++=$++@@;-................",
".........&+++>-,='=))''''!'''!'')))=~~~~'~$$$++++,..............",
".........&#%@>,)'!'''{{{{{{{{{{{{{{{{{{'!'~~=$+#;-,.............",
".........-#%%@>{{{]^^^/((_^/(_/^^^^^///(_{{{'~,,,,).............",
".........$&#%*&>@@@>:^^//(((((((((//^^:++++$+@-+',).............",
"..........,&@@&~**@;-@@@@@++-@######+$#**#+$@-,~')..............",
".........@@,-->=*+++,**;;;;+$*%%@@@@+$@+$,$),,=).=).............",
".........@*+,$$$$$$$,,,,,,==$@++++++$),,,))=<<<<)=).............",
".........@@,***#+,+*@+-,~$$$$$$$,,,~~')))=-&>,~<)='.............",
"..........+,*#@@+,*@@@@@@-~-#@@&+++>>$$,='&>>,~<='<.............",
".........+*=@@@@+=*+++++++,$#%++>>>>$$$~='&>$,=<))..............",
".........+@*,+++,==,,,$$$,~'=-$$$$,,,~~==<>$~)<')<<.............",
".........,+@@@,,==='==''''''==)))))<<<<<<<<<<<')=<<.............",
"..........,,+@)**##+>,=$=++++++++=~-&+&&++,~=)<)=<'.............",
".........##&=,$*#++++,-&$+@@@@@@+$'&++->>$,~=)<=='<.............",
".........#%*-)$>>>++>=@@$@++++++$='&&>>>$$,~='<=<...............",
".........&*%#-~$)))));++>.''''''''=====<<<<<<<!!!)<~~~~~~~~.....",
".........-#@;-~$#*@&-,''''=,--->$>-$$$~'''<<~~)'!)<========~~...",
".........$-@;>~$*#;;;;;+>,)-#;;;;&++->~+-$~<$~)'<)'''''''))==~..",
"..........$->,<$#;++++++>,'>;&+------>~--$~<$~)'='!.!!<<<'')=~..",
"...........$,~<)=$--->>>,''=+--->$>-$,'$~==<=)'<<!.!!!<<<''))=~.",
".............)))))======''==~~~~))~~)'.'''''''''''''''''''')=~~.",
"...................~~~~~~~~~~~~~~~~~~~~~~~~~~~~~~~~~~~~~~~~~~~.."};
