/* XPM */
static char * table2_xpm[] = {
"64 64 23 1",
" 	c None",
".	c #000000",
"+	c #B4B4B4",
"@	c #A8A8A8",
"#	c #C0C0C0",
"$	c #989898",
"%	c #DCDCDC",
"&	c #D0D0D0",
"*	c #ECECEC",
"=	c #646464",
"-	c #7C7C7C",
";	c #8C8C8C",
">	c #FCFCFC",
",	c #707070",
"'	c #5C5C5C",
")	c #1C1C1C",
"!	c #282828",
"~	c #383838",
"{	c #545454",
"]	c #202020",
"^	c #2C2C2C",
"/	c #484848",
"(	c #303030",
"................................................................",
"................................................................",
"................................................................",
"................................................................",
"................................................................",
"................................................................",
"................................................................",
"................................................................",
"................................................................",
"................................................................",
"................................................................",
"................................................................",
"................................................................",
"................................................................",
"................................................................",
"................................................................",
"................................................................",
"................................................................",
"................................................................",
"................................................................",
"................................................................",
"................................................................",
"................................................................",
"................................................................",
"................................................................",
"................................................................",
"................................................................",
"................................................................",
"................................................................",
"................................................................",
"................................................................",
"................................................................",
"................................................................",
"................................................................",
"................................................................",
"................................................................",
"................................................................",
"................................................................",
"...............+@@++#########++++@@@@$$@@@@$@$$@@@..............",
"...........%&&##&&&%**********%%%%%&&&&&&&&&&####+++++..........",
"...........=-;;%%**>>>>>>>>>>>>****************%;;;;;-..........",
"...........,-;$@@+#####+@@@@@@$$;;;---,=='==,,-;;;;;;-..........",
"...............$@+####+@@@@@@@$;;;---,,=='==,,-;;;..............",
"................................................................",
"..............................))................................",
"..............................)))...............................",
"..............................)))...............................",
"..............................!)))..............................",
"..............................~!))..............................",
"..............................{~))..............................",
"..............................={!)..............................",
"..............................={~)..............................",
"..............................-={)..............................",
"..............................-={]..............................",
"..............................-,{]).............................",
"..............................-,{!).............................",
"..............................-,{!).............................",
"..............................-,{!).............................",
"..............................-,{!).............................",
"..............................,,{!)..~~^^]{{{{{{{{{{{=======....",
"...........................$@+,,{!)$--^^^^^^^~~~~~~~~~~~~~/{{=..",
"........................-@&%%*#,{{,,',-'=^^^]]]]]]]]]]]]^^~//{=.",
".......................;+#&*>>**&#+$$;,'{/^^].........]]^~//{=..",
"........................;$@#&&&#@;;;;,{{{(]]]]]]]]]]]]^^~/{=...."};
